<svg xmlns="http://www.w3.org/2000/svg" viewBox="0 0 230.6 230.6"><defs><style>.cls-1{fill:#c3a441;}</style></defs><title>Asset 27</title><g id="Layer_2" data-name="Layer 2"><g id="Layer_4" data-name="Layer 4"><path class="cls-1" d="M115.3,230.6A115.3,115.3,0,1,1,230.6,115.3,115.43,115.43,0,0,1,115.3,230.6Zm0-218.6A103.3,103.3,0,1,0,218.6,115.3,103.42,103.42,0,0,0,115.3,12Z"/><path class="cls-1" d="M107.84,174.77a102.9,102.9,0,0,1-19.92-2.72V59.46a82.88,82.88,0,0,1,19.92-2.83c0-2.39,0-4.89,0-7.4-1.24,0-2.5,0-3.79,0H50.13v3.62h5q7.52,0,11.33,4.29,2.73,3.14,2.73,15.53v85.55q0,11.22-2.15,14.45Q63.51,178,55.11,178h-5v3.61h57.69C107.83,179.31,107.83,177,107.84,174.77Z"/><path class="cls-1" d="M174.1,78.4q-9.42-15.72-24.9-22.46a74.39,74.39,0,0,0-17.54-4.81c0,3.71,0,7.34,0,10.5a49.54,49.54,0,0,1,14.7,10.81q14.94,15.82,14.94,43.27,0,27.24-14.94,43.16A50.25,50.25,0,0,1,132,169.62c0,3,0,6.39,0,9.85q21.87-4.51,34.67-18.55,16.8-18.55,16.8-46.19Q183.53,94.12,174.1,78.4Z"/><path class="cls-1" d="M166.41,110.63H85.15c0,2.35,0,4.8,0,7.22h81.24C166.39,115.42,166.4,113,166.41,110.63Z"/></g></g></svg>